<svg width="65" height="50" xmlns="http://www.w3.org/2000/svg"><g fill="none" fill-rule="evenodd"><rect fill="#DD4343" width="65" height="50" rx="5"/><path d="M10 8.5c.129-.19.284-.247.465-.17.181.078.35.196.509.357.158.16.283.321.377.482.093.16.117.235.07.223l6.439 11.19c.035-.178.067-.467.096-.865.03-.399.05-.869.062-1.41.011-.542.014-1.134.009-1.776-.006-.643-.018-1.285-.036-1.928a64.52 64.52 0 0 0-.078-1.891 44.659 44.659 0 0 0-.123-1.67c-.047-.493-.1-.903-.158-1.23-.059-.328-.129-.527-.21-.598 0-.19.034-.372.105-.545.07-.172.21-.259.42-.259.2 0 .363.12.492.357.129.238.228.506.298.804.07.297.12.589.15.874.028.286.043.47.043.553.012.238.02.616.026 1.134l.018 1.775a2676.258 2676.258 0 0 1 .044 5.98c0 .523.006.903.017 1.141.012.334.056.625.132.875.076.25.114.535.114.857 0 .261-.097.458-.29.589-.192.13-.406.196-.64.196a1.01 1.01 0 0 1-.342-.054.48.48 0 0 1-.237-.178.61.61 0 0 1-.096-.33 1.64 1.64 0 0 1 .079-.509c-.21-.25-.48-.67-.807-1.258-.328-.59-.688-1.255-1.08-1.999-.391-.744-.8-1.526-1.228-2.347-.426-.82-.836-1.597-1.228-2.329a35.396 35.396 0 0 0-1.096-1.919c-.34-.547-.614-.922-.825-1.124a27.658 27.658 0 0 0-.052 2.686c.023 1.017.064 2.058.122 3.123.059 1.065.12 2.103.185 3.115.064 1.011.096 1.903.096 2.677 0 .25-.07.407-.21.473a.656.656 0 0 1-.439.044.906.906 0 0 1-.386-.187c-.105-.09-.123-.158-.053-.205L10 8.5zm10.61 15.01a84.58 84.58 0 0 0 1.105-4.06c.293-1.173.653-2.663 1.08-4.472.426-1.808.926-4.033 1.5-6.675.07-.119.17-.199.298-.24a.856.856 0 0 1 .386-.036c.128.018.237.06.324.125.088.065.126.14.114.223l3.457 8.549 1.79-.554c.151 0 .28.042.385.125a.432.432 0 0 1 .176.304c.011.119-.03.247-.123.383-.094.137-.258.247-.492.33a4.133 4.133 0 0 1-.368.117c-.152.041-.304.08-.456.116-.152.035-.28.071-.386.107-.105.035-.158.071-.158.107l1.947 5.282c-.023.06-.046.134-.07.224a.383.383 0 0 1-.14.214c-.07.053-.176.071-.316.053-.14-.018-.34-.104-.596-.258l-2.018-5.248a9.19 9.19 0 0 1-.912.206c-.363.065-.743.13-1.14.196a22.44 22.44 0 0 0-1.202.232c-.404.09-.775.2-1.115.33-.339.131-.625.289-.86.473a1.08 1.08 0 0 0-.42.67c-.024.166-.068.44-.132.82-.064.381-.126.762-.184 1.143-.07.452-.152.94-.246 1.463-.21.214-.4.286-.57.214-.17-.071-.389-.226-.658-.464zm4.404-13.243l-1.86 7.942c.199-.072.474-.15.825-.232a256.29 256.29 0 0 1 2.377-.554 14.65 14.65 0 0 0 1.132-.303l-2.474-6.853zm17.347.053c-.047-.024-.12.125-.22.446a120.803 120.803 0 0 0-.876 2.98 51.375 51.375 0 0 1-.58 1.91c-.204.631-.412 1.22-.622 1.767-.21.548-.418.982-.623 1.303-.205.321-.398.497-.58.527-.18.03-.347-.158-.5-.563a9.801 9.801 0 0 1-.63-1.177c-.235-.5-.483-1.042-.746-1.625a326.92 326.92 0 0 0-.825-1.811 27.949 27.949 0 0 0-.868-1.74 14.588 14.588 0 0 0-.86-1.401c-.28-.399-.55-.675-.807-.83 0 .928.053 1.945.158 3.052.105 1.106.22 2.228.342 3.364.123 1.136.237 2.258.342 3.364.105 1.107.158 2.13.158 3.07a.403.403 0 0 1 .009.357.555.555 0 0 1-.237.268.483.483 0 0 1-.369.035c-.14-.035-.269-.142-.386-.321a45.659 45.659 0 0 1-.35-3.64l-.21-3.73c-.071-1.25-.156-2.494-.255-3.73a43.98 43.98 0 0 0-.448-3.66c-.011-.238.03-.386.123-.446.094-.06.21-.089.351-.089.526.155 1 .437 1.421.848.421.41.804.892 1.15 1.445.344.554.66 1.157.947 1.812a507 507 0 0 1 .85 1.954c.281.649.562 1.267.843 1.856.28.59.59 1.098.93 1.526.046 0 .09-.02.131-.062.041-.042.097-.155.167-.34.07-.184.17-.466.298-.847.129-.38.301-.91.518-1.589a3609.954 3609.954 0 0 0 2.008-6.317c.024-.072.082-.134.176-.188a.607.607 0 0 1 .307-.08c.111 0 .213.039.307.116.093.077.158.211.193.401.117 1.095.225 2.252.324 3.472.1 1.22.208 2.466.325 3.739.117 1.273.252 2.56.404 3.864a66.75 66.75 0 0 0 .561 3.846c-.023.166-.076.282-.158.348a.395.395 0 0 1-.298.08 1.132 1.132 0 0 1-.377-.116 1.941 1.941 0 0 1-.378-.241l-1.14-13.207zm4.382 12.797c0-1.143.02-2.309.061-3.498.041-1.19.059-2.389.053-3.597a48.873 48.873 0 0 0-.15-3.596 24.711 24.711 0 0 0-.525-3.498c0-.06.023-.134.07-.223.047-.09.105-.17.175-.241a.829.829 0 0 1 .237-.17.333.333 0 0 1 .272-.008.76.76 0 0 1 .377.348c.1.172.176.36.228.562.053.202.088.395.106.58.017.184.026.318.026.401l6.754-1.713a.4.4 0 0 1 .255.187.567.567 0 0 1 .088.34.738.738 0 0 1-.123.365.602.602 0 0 1-.342.25l-6.65 1.839c0 .773.02 1.54.062 2.302.04.761.09 1.535.149 2.32l4.877-1.731.105-.107a.894.894 0 0 1 .255-.179.576.576 0 0 1 .316-.053c.11.012.219.1.324.267 0 .238-.14.455-.42.652a5.21 5.21 0 0 1-1.045.544c-.415.167-.865.324-1.35.473-.486.149-.936.3-1.352.455a7.153 7.153 0 0 0-1.044.473c-.28.16-.42.33-.42.509l-.123 4.694c.175.107.43.14.763.098a7.261 7.261 0 0 0 1.114-.241c.41-.12.842-.265 1.298-.437.456-.173.895-.337 1.316-.491.421-.155.81-.292 1.167-.41.356-.12.646-.185.868-.197.105.012.199.05.28.116a.57.57 0 0 1 .176.223c.035.083.038.17.01.259-.03.09-.11.163-.238.223-.456.202-1.006.428-1.649.678-.643.25-1.307.49-1.991.723-.684.232-1.348.434-1.992.607-.643.172-1.187.276-1.631.312a1.206 1.206 0 0 1-.395-.116 1.383 1.383 0 0 1-.342-.294z" stroke="#FFF" fill="#FFF"/><path d="M16.828 30.945a.63.63 0 0 1-.216.263.545.545 0 0 1-.293.077.745.745 0 0 1-.383-.132 12.985 12.985 0 0 0-.502-.293 4.095 4.095 0 0 0-.675-.294 2.84 2.84 0 0 0-.914-.131c-.317 0-.594.038-.829.114a1.754 1.754 0 0 0-.595.319 1.274 1.274 0 0 0-.361.489c-.08.19-.119.398-.119.625 0 .289.08.53.242.722.162.193.376.357.642.493s.57.258.91.365c.34.108.687.223 1.04.345.355.122.702.263 1.042.425.34.161.643.365.91.612.266.246.48.548.641.905.162.357.242.79.242 1.3 0 .556-.094 1.076-.284 1.56-.19.485-.468.907-.833 1.267-.366.36-.812.643-1.339.85-.527.207-1.13.31-1.81.31-.392 0-.777-.038-1.156-.115a6.085 6.085 0 0 1-1.093-.327 5.703 5.703 0 0 1-.977-.51 4.81 4.81 0 0 1-.812-.663l.663-1.096a.846.846 0 0 1 .225-.2.55.55 0 0 1 .293-.081c.142 0 .295.058.46.174.164.116.358.245.582.387.224.142.487.27.79.387.303.116.667.174 1.092.174.652 0 1.156-.154 1.514-.463.357-.31.535-.752.535-1.33 0-.324-.08-.587-.242-.791a1.956 1.956 0 0 0-.642-.514 4.792 4.792 0 0 0-.91-.353c-.34-.096-.685-.201-1.037-.314a8.942 8.942 0 0 1-1.037-.408 3.36 3.36 0 0 1-.909-.621 2.823 2.823 0 0 1-.642-.956c-.161-.383-.242-.854-.242-1.416 0-.447.09-.883.268-1.309.178-.425.439-.801.782-1.13a3.86 3.86 0 0 1 1.262-.79c.499-.199 1.068-.298 1.708-.298.726 0 1.394.113 2.006.34a4.529 4.529 0 0 1 1.565.952l-.562 1.08zm5.896 5.728V41h-2.286V28.709h4.004c.821 0 1.532.096 2.133.289.6.193 1.096.462 1.488.807.39.346.68.76.867 1.242.187.481.28 1.008.28 1.58 0 .596-.1 1.14-.297 1.637a3.395 3.395 0 0 1-.893 1.279c-.397.357-.892.635-1.488.833-.595.198-1.291.297-2.09.297h-1.718zm0-1.785h1.718c.419 0 .784-.052 1.096-.157.312-.105.57-.255.773-.45.205-.196.357-.434.46-.714.102-.28.152-.594.152-.94 0-.328-.05-.626-.152-.892a1.764 1.764 0 0 0-.46-.68 2.042 2.042 0 0 0-.773-.43 3.627 3.627 0 0 0-1.096-.148h-1.718v4.412zm21.052-.033c0 .9-.15 1.735-.45 2.503a5.93 5.93 0 0 1-1.267 1.993 5.735 5.735 0 0 1-1.963 1.313c-.766.315-1.613.472-2.542.472-.93 0-1.778-.157-2.546-.472a5.77 5.77 0 0 1-1.972-1.313 5.897 5.897 0 0 1-1.27-1.993 6.813 6.813 0 0 1-.451-2.503c0-.902.15-1.736.45-2.504.3-.768.724-1.432 1.271-1.993a5.77 5.77 0 0 1 1.972-1.313c.768-.315 1.617-.472 2.546-.472.93 0 1.776.159 2.541.476.766.317 1.42.755 1.964 1.313a5.884 5.884 0 0 1 1.267 1.99c.3.767.45 1.601.45 2.503zm-2.346 0c0-.675-.09-1.28-.268-1.815a3.839 3.839 0 0 0-.769-1.364 3.312 3.312 0 0 0-1.22-.859 4.197 4.197 0 0 0-1.619-.297c-.6 0-1.142.099-1.623.297a3.343 3.343 0 0 0-1.229.858 3.854 3.854 0 0 0-.777 1.365c-.182.535-.272 1.14-.272 1.815 0 .674.09 1.279.272 1.814.18.536.44.99.777 1.36.337.371.747.656 1.229.854a4.229 4.229 0 0 0 1.623.298c.6 0 1.14-.1 1.62-.297a3.335 3.335 0 0 0 1.219-.855c.334-.37.59-.824.77-1.36.178-.535.267-1.14.267-1.814zm13.81-6.146v1.878h-3.698V41h-2.287V30.587h-3.714V28.71h9.699z" fill="#FFF"/></g></svg>